<?xml version="1.0" encoding="utf-8"?>
<!-- Generator: Adobe Illustrator 16.0.0, SVG Export Plug-In . SVG Version: 6.00 Build 0)  -->
<!DOCTYPE svg PUBLIC "-//W3C//DTD SVG 1.1//EN" "http://www.w3.org/Graphics/SVG/1.1/DTD/svg11.dtd">
<svg version="1.1" id="Capa_1" xmlns="http://www.w3.org/2000/svg" xmlns:xlink="http://www.w3.org/1999/xlink" x="0px" y="0px"
	 width="342.926px" height="841.89px" viewBox="0 0 342.926 841.89" enable-background="new 0 0 342.926 841.89"
	 xml:space="preserve">
<g>
	<g>
		<path fill-rule="evenodd" clip-rule="evenodd" fill="#FFFFFF" d="M174.429,780.686c-93.042,0-168.5,13.141-168.5,29.338
			c0,16.205,75.458,29.34,168.5,29.34c93.04,0,168.497-13.135,168.497-29.34C342.926,793.826,267.469,780.686,174.429,780.686
			L174.429,780.686z"/>
		<path fill-rule="evenodd" clip-rule="evenodd" fill="#FEFEFF" d="M174.429,781.639c-89.609,0-162.283,12.713-162.283,28.385
			c0,15.678,72.674,28.387,162.283,28.387c89.607,0,162.278-12.709,162.278-28.387C336.707,794.352,264.036,781.639,174.429,781.639
			L174.429,781.639z"/>
		<path fill-rule="evenodd" clip-rule="evenodd" fill="#FDFEFE" d="M174.429,782.592c-86.175,0-156.065,12.287-156.065,27.432
			c0,15.15,69.89,27.434,156.065,27.434c86.174,0,156.062-12.283,156.062-27.434C330.49,794.879,260.603,782.592,174.429,782.592
			L174.429,782.592z"/>
		<path fill-rule="evenodd" clip-rule="evenodd" fill="#FBFCFD" d="M174.429,783.545c-82.742,0-149.848,11.859-149.848,26.479
			c0,14.625,67.105,26.48,149.848,26.48c82.741,0,149.843-11.855,149.843-26.48C324.271,795.404,257.17,783.545,174.429,783.545
			L174.429,783.545z"/>
		<path fill-rule="evenodd" clip-rule="evenodd" fill="#FAFBFC" d="M174.429,784.498c-79.309,0-143.63,11.432-143.63,25.525
			c0,14.098,64.321,25.527,143.63,25.527c79.308,0,143.624-11.43,143.624-25.527C318.053,795.93,253.736,784.498,174.429,784.498
			L174.429,784.498z"/>
		<path fill-rule="evenodd" clip-rule="evenodd" fill="#F8F9FB" d="M174.429,785.451c-75.876,0-137.413,11.006-137.413,24.572
			c0,13.57,61.537,24.574,137.413,24.574c75.874,0,137.407-11.004,137.407-24.574C311.836,796.457,250.303,785.451,174.429,785.451
			L174.429,785.451z"/>
		<path fill-rule="evenodd" clip-rule="evenodd" fill="#F6F8FA" d="M174.429,786.404c-72.442,0-131.196,10.578-131.196,23.619
			c0,13.043,58.754,23.621,131.196,23.621c72.441,0,131.188-10.578,131.188-23.621C305.617,796.982,246.87,786.404,174.429,786.404
			L174.429,786.404z"/>
		<path fill-rule="evenodd" clip-rule="evenodd" fill="#F4F6F9" d="M174.429,787.355c-69.009,0-124.979,10.152-124.979,22.668
			c0,12.518,55.97,22.668,124.979,22.668c69.008,0,124.972-10.15,124.972-22.668C299.4,797.508,243.437,787.355,174.429,787.355
			L174.429,787.355z"/>
		<path fill-rule="evenodd" clip-rule="evenodd" fill="#F2F5F7" d="M174.429,788.309c-65.576,0-118.761,9.725-118.761,21.715
			s53.185,21.715,118.761,21.715c65.575,0,118.754-9.725,118.754-21.715S240.004,788.309,174.429,788.309L174.429,788.309z"/>
		<path fill-rule="evenodd" clip-rule="evenodd" fill="#F0F3F6" d="M174.429,789.262c-62.143,0-112.544,9.299-112.544,20.762
			s50.401,20.762,112.544,20.762s112.535-9.299,112.535-20.762S236.571,789.262,174.429,789.262L174.429,789.262z"/>
		<path fill-rule="evenodd" clip-rule="evenodd" fill="#EFF1F5" d="M174.429,790.215c-58.709,0-106.326,8.871-106.326,19.809
			c0,10.936,47.617,19.809,106.326,19.809s106.317-8.873,106.317-19.809C280.746,799.086,233.138,790.215,174.429,790.215
			L174.429,790.215z"/>
		<path fill-rule="evenodd" clip-rule="evenodd" fill="#EDF0F4" d="M174.429,791.168c-55.276,0-100.109,8.443-100.109,18.855
			c0,10.41,44.833,18.855,100.109,18.855c55.275,0,100.1-8.445,100.1-18.855C274.528,799.611,229.704,791.168,174.429,791.168
			L174.429,791.168z"/>
		<path fill-rule="evenodd" clip-rule="evenodd" fill="#EBEEF2" d="M174.429,792.121c-51.843,0-93.892,8.016-93.892,17.902
			c0,9.883,42.049,17.902,93.892,17.902s93.881-8.02,93.881-17.902C268.31,800.137,226.271,792.121,174.429,792.121L174.429,792.121
			z"/>
		<path fill-rule="evenodd" clip-rule="evenodd" fill="#E9ECF1" d="M174.429,793.074c-48.409,0-87.674,7.59-87.674,16.949
			c0,9.355,39.265,16.949,87.674,16.949s87.664-7.594,87.664-16.949C262.093,800.664,222.838,793.074,174.429,793.074
			L174.429,793.074z"/>
		<path fill-rule="evenodd" clip-rule="evenodd" fill="#E7EBF0" d="M174.429,794.027c-44.976,0-81.457,7.162-81.457,15.996
			c0,8.828,36.481,15.996,81.457,15.996c44.977,0,81.445-7.168,81.445-15.996C255.874,801.189,219.405,794.027,174.429,794.027
			L174.429,794.027z"/>
		<path fill-rule="evenodd" clip-rule="evenodd" fill="#E5E9EF" d="M174.429,794.979c-41.543,0-75.239,6.736-75.239,15.045
			c0,8.303,33.696,15.045,75.239,15.045s75.228-6.742,75.228-15.045C249.656,801.715,215.972,794.979,174.429,794.979
			L174.429,794.979z"/>
		<path fill-rule="evenodd" clip-rule="evenodd" fill="#E3E7ED" d="M174.429,795.932c-38.109,0-69.022,6.309-69.022,14.092
			c0,7.775,30.913,14.09,69.022,14.09c38.11,0,69.01-6.314,69.01-14.09C243.438,802.24,212.539,795.932,174.429,795.932
			L174.429,795.932z"/>
		<path fill-rule="evenodd" clip-rule="evenodd" fill="#E1E5EC" d="M174.429,796.885c-34.676,0-62.805,5.881-62.805,13.139
			c0,7.248,28.128,13.139,62.805,13.139c34.677,0,62.792-5.891,62.792-13.139C237.221,802.766,209.105,796.885,174.429,796.885
			L174.429,796.885z"/>
		<path fill-rule="evenodd" clip-rule="evenodd" fill="#DFE4EB" d="M174.429,797.838c-31.243,0-56.587,5.455-56.587,12.186
			c0,6.723,25.344,12.186,56.587,12.186c31.244,0,56.574-5.463,56.574-12.186C231.003,803.293,205.673,797.838,174.429,797.838
			L174.429,797.838z"/>
		<path fill-rule="evenodd" clip-rule="evenodd" fill="#DDE2EA" d="M174.429,798.791c-27.81,0-50.37,5.027-50.37,11.232
			c0,6.195,22.56,11.232,50.37,11.232c27.811,0,50.355-5.037,50.355-11.232C224.784,803.818,202.239,798.791,174.429,798.791
			L174.429,798.791z"/>
		<path fill-rule="evenodd" clip-rule="evenodd" fill="#DBE0E8" d="M174.429,799.744c-24.376,0-44.152,4.6-44.152,10.279
			c0,5.668,19.776,10.279,44.152,10.279c24.378,0,44.138-4.611,44.138-10.279C218.566,804.344,198.807,799.744,174.429,799.744
			L174.429,799.744z"/>
		<path fill-rule="evenodd" clip-rule="evenodd" fill="#D9DFE7" d="M174.429,800.697c-20.943,0-37.935,4.172-37.935,9.326
			c0,5.141,16.992,9.326,37.935,9.326c20.944,0,37.92-4.186,37.92-9.326C212.349,804.869,195.373,800.697,174.429,800.697
			L174.429,800.697z"/>
	</g>
	<path fill-rule="evenodd" clip-rule="evenodd" fill="#1E1E18" d="M273.327,764.822c-103.252,51.697-95.156,52.109-198.108,0
		C109.217,754.77,251.843,753.355,273.327,764.822L273.327,764.822z"/>
	<polygon fill-rule="evenodd" clip-rule="evenodd" fill="#A8B3BD" points="75.227,764.822 273.335,764.822 273.335,631.857 
		75.227,631.857 75.227,764.822 	"/>
	<polygon fill-rule="evenodd" clip-rule="evenodd" fill="#FFFFFF" points="194.379,757.102 242.119,757.102 242.119,631.857 
		194.379,631.857 194.379,757.102 	"/>
	<polygon fill-rule="evenodd" clip-rule="evenodd" fill="#F3F4F4" points="90.885,699.062 111.003,699.062 111.003,631.857 
		90.885,631.857 90.885,699.062 	"/>
	<path fill-rule="evenodd" clip-rule="evenodd" fill="#B3BFCB" d="M74.88,713.967l26.641-3.389l169.511-21.688
		c27.703-3.541,33.419,35.652,5.722,39.193l-171.367,21.912l-24.795,3.16C52.899,756.682,47.174,717.488,74.88,713.967
		L74.88,713.967z"/>
	<path fill-rule="evenodd" clip-rule="evenodd" fill="#B3BFCB" d="M72.933,671.361l26.644-3.389l169.512-21.68
		c27.699-3.545,33.415,35.643,5.718,39.186l-171.369,21.92l-24.788,3.148C50.952,714.076,45.227,674.885,72.933,671.361
		L72.933,671.361z"/>
	<path fill-rule="evenodd" clip-rule="evenodd" fill="#848B90" d="M78.069,701.812l196.202-24.957
		c13.845-1.762,17.379-7.762,18.847-11.566c1.229,8.77-4.472,18.426-18.312,20.189L78.608,710.443
		c-12.979,1.648-20.966-5.188-22.926-13.275C58.491,699.82,63.351,703.689,78.069,701.812L78.069,701.812z"/>
	<path fill-rule="evenodd" clip-rule="evenodd" fill="#848B90" d="M80.011,744.422l196.195-24.965
		c13.85-1.764,17.389-7.76,18.851-11.562c1.232,8.766-4.463,18.424-18.312,20.189l-196.19,24.965
		c-12.992,1.645-20.969-5.188-22.929-13.279C60.43,742.426,65.286,746.291,80.011,744.422L80.011,744.422z"/>
	<path fill-rule="evenodd" clip-rule="evenodd" fill="#848281" d="M174.161,780.375c10.615,0,19.231,4.154,19.231,9.271
		c0,5.119-8.616,9.271-19.231,9.271c-10.609,0-19.219-4.152-19.219-9.271C154.942,784.529,163.552,780.375,174.161,780.375
		L174.161,780.375z"/>
	<polygon fill-rule="evenodd" clip-rule="evenodd" fill="#FFFFFF" points="197.112,655.531 248.495,648.621 248.495,672.135 
		197.112,678.363 197.112,655.531 	"/>
	<polygon fill-rule="evenodd" clip-rule="evenodd" fill="#F3F4F4" points="78.039,670.682 103.735,667.229 103.735,690.74 
		78.039,693.506 78.039,670.682 	"/>
	<polygon fill-rule="evenodd" clip-rule="evenodd" fill="#FFFFFF" points="197.112,698.689 248.495,691.775 248.495,715.289 
		197.112,721.516 197.112,698.689 	"/>
	<polygon fill-rule="evenodd" clip-rule="evenodd" fill="#F3F4F4" points="78.039,713.832 103.735,710.379 103.735,733.889 
		78.039,736.662 78.039,713.832 	"/>
	<path fill-rule="evenodd" clip-rule="evenodd" fill="#AAB1BD" d="M56.66,174.61l168.994,30.461l81.096,14.616
		c52.102,9.392,37.867,88.335-14.226,78.941l-79.09-14.254l-171-30.823C-9.663,244.16,4.558,165.217,56.66,174.61L56.66,174.61z"/>
	<path fill-rule="evenodd" clip-rule="evenodd" fill="#D4DDE2" d="M55.084,190.382l146.821,26.499l98.45,18.187
		c27.02,4.996,19.633,45.97-7.389,40.976l-97.4-17.999l-147.87-26.688C20.664,226.479,28.043,185.506,55.084,190.382L55.084,190.382
		z"/>
	<path fill-rule="evenodd" clip-rule="evenodd" fill="#AAB1BD" d="M55.537,61.073l168.985,30.462l81.098,14.616
		c52.107,9.392,37.867,88.333-14.231,78.94l-79.081-14.254L41.303,140.015C-10.795,130.623,3.43,51.682,55.537,61.073L55.537,61.073
		z"/>
	<path fill-rule="evenodd" clip-rule="evenodd" fill="#D4DDE2" d="M53.952,76.846l146.822,26.499l98.444,18.187
		c27.021,4.996,19.633,45.969-7.38,40.973l-97.4-17.994l-147.87-26.69C19.527,112.944,26.906,71.961,53.952,76.846L53.952,76.846z"
		/>
	<path fill-rule="evenodd" clip-rule="evenodd" fill="#C8D3DE" d="M206.942,281.687v154.546h73.204V281.687H206.942L206.942,281.687
		z M68.783,281.687v154.435h73.192V281.687H68.783L68.783,281.687z"/>
	<path fill-rule="evenodd" clip-rule="evenodd" fill="#AAB1BD" d="M206.95,322.6v20.074l73.196-19.61v-20.082L206.95,322.6
		L206.95,322.6z M68.783,359.627v20.071l73.192-19.61v-20.082L68.783,359.627L68.783,359.627z"/>
	<polygon fill-rule="evenodd" clip-rule="evenodd" fill="#E1E8EE" points="43.99,581.445 174.279,606.643 304.568,581.445 
		304.568,429.208 43.99,429.208 43.99,581.445 	"/>
	<polygon fill-rule="evenodd" clip-rule="evenodd" fill="#C7D0D9" points="75.219,631.857 273.327,631.857 304.568,581.453 
		43.99,581.453 75.219,631.857 	"/>
	<path fill-rule="evenodd" clip-rule="evenodd" fill="#FFFFFF" d="M238.044,338.144v81.639h27.275v-88.954L238.044,338.144
		L238.044,338.144z M83.61,379.515v40.172l27.271-0.021v-47.452L83.61,379.515L83.61,379.515z"/>
	<path fill-rule="evenodd" clip-rule="evenodd" fill="#C8D3DE" d="M289.813,219.944l-168.99,45.285l-83.227,22.299
		c-52.103,13.958-30.949,92.902,21.152,78.943l81.209-21.762l171.013-45.821C363.064,284.925,341.926,205.984,289.813,219.944
		L289.813,219.944z"/>
	<path fill-rule="evenodd" clip-rule="evenodd" fill="#C8D3DE" d="M289.813,106.6l-168.99,45.277l-83.227,22.304
		c-52.103,13.961-30.949,92.905,21.152,78.943l81.209-21.759l171.013-45.821C363.064,171.582,341.926,92.63,289.813,106.6
		L289.813,106.6z"/>
	<path fill-rule="evenodd" clip-rule="evenodd" fill="#C8D3DE" d="M258.467,1.648L120.823,38.53L37.597,60.829
		c-52.103,13.961-30.949,92.904,21.152,78.943l81.209-21.759l139.667-37.426C331.723,66.629,310.568-12.314,258.467,1.648
		L258.467,1.648z"/>
	<path fill-rule="evenodd" clip-rule="evenodd" fill="#F4F8FB" d="M254.685,8.196L150.075,36.224L50.727,62.848
		c-45.283,12.135-26.896,80.74,18.378,68.608l97.602-26.154l106.37-28.501C318.35,64.669,299.979-3.938,254.685,8.196L254.685,8.196
		z"/>
	<polygon fill-rule="evenodd" clip-rule="evenodd" fill="#F1F6F8" points="194.379,631.857 242.119,631.857 263.653,581.445 
		215.899,581.445 194.379,631.857 	"/>
	<polygon fill-rule="evenodd" clip-rule="evenodd" fill="#F1F6F8" points="111.003,631.857 90.885,631.857 63.647,581.445 
		83.756,581.445 111.003,631.857 	"/>
	<polygon fill-rule="evenodd" clip-rule="evenodd" fill="#FFFFFF" points="215.899,581.445 263.653,581.445 263.653,429.208 
		215.899,429.208 215.899,581.445 	"/>
	<polygon fill-rule="evenodd" clip-rule="evenodd" fill="#FFFFFF" points="63.647,581.445 83.756,581.445 83.756,429.208 
		63.647,429.208 63.647,581.445 	"/>
	<polygon fill-rule="evenodd" clip-rule="evenodd" fill="#848281" points="72.03,626.699 276.524,626.699 273.335,631.857 
		75.227,631.857 72.03,626.699 	"/>
	<polygon fill-rule="evenodd" clip-rule="evenodd" fill="#FFFFFF" points="190.685,83.696 251.872,67.297 251.872,13.11 
		190.685,29.508 190.685,83.696 	"/>
	<polygon fill-rule="evenodd" clip-rule="evenodd" fill="#FFFFFF" points="56.844,119.559 79.552,113.48 79.552,59.283 
		56.844,65.367 56.844,119.559 	"/>
	<path fill-rule="evenodd" clip-rule="evenodd" fill="#F4F8FB" d="M278.835,115.071l-120.064,32.17L52.745,175.663
		c-45.286,12.133-26.891,80.733,18.378,68.606l104.284-27.942l121.814-32.641C342.504,171.553,324.121,102.939,278.835,115.071
		L278.835,115.071z"/>
	<polygon fill-rule="evenodd" clip-rule="evenodd" fill="#FFFFFF" points="203.305,193.667 264.493,177.269 264.493,123.08 
		203.305,139.478 203.305,193.667 	"/>
	<polygon fill-rule="evenodd" clip-rule="evenodd" fill="#FFFFFF" points="69.465,229.53 92.169,223.45 92.169,169.254 
		69.465,175.338 69.465,229.53 	"/>
	<path fill-rule="evenodd" clip-rule="evenodd" fill="#F4F8FB" d="M279.652,228.201L159.59,260.375L53.559,288.795
		c-45.291,12.131-26.886,80.732,18.379,68.605l104.288-27.941l121.805-32.644C343.314,284.683,324.936,216.07,279.652,228.201
		L279.652,228.201z"/>
	<polygon fill-rule="evenodd" clip-rule="evenodd" fill="#FFFFFF" points="204.116,306.797 265.303,290.399 265.303,236.212 
		204.116,252.608 204.116,306.797 	"/>
	<polygon fill-rule="evenodd" clip-rule="evenodd" fill="#FFFFFF" points="70.275,342.661 92.992,336.583 92.992,282.385 
		70.275,288.469 70.275,342.661 	"/>
</g>
</svg>
