<?xml version="1.0" encoding="UTF-8"?>
<svg width="1006px" height="814px" viewBox="0 0 1006 814" version="1.1" xmlns="http://www.w3.org/2000/svg" xmlns:xlink="http://www.w3.org/1999/xlink">
    <!-- Generator: Sketch 47.1 (45422) - http://www.bohemiancoding.com/sketch -->
    <title>Desktop HD</title>
    <desc>Created with Sketch.</desc>
    <defs>
        <linearGradient x1="50%" y1="0%" x2="50%" y2="100%" id="linearGradient-1">
            <stop stop-color="#0C619C" offset="0%"></stop>
            <stop stop-color="#ABC1D3" offset="100%"></stop>
        </linearGradient>
        <radialGradient cx="50%" cy="0%" fx="50%" fy="0%" r="100%" gradientTransform="translate(0.500000,0.000000),scale(1.000000,0.981233),rotate(90.000000),translate(-0.500000,-0.000000)" id="radialGradient-2">
            <stop stop-color="#FFFFFF" offset="0%"></stop>
            <stop stop-color="#CDD4FF" offset="100%"></stop>
        </radialGradient>
        <path d="M363.859717,49.5188754 C362.265442,47.6926487 359.980893,46.6181143 357.559636,46.5554733 L314.988843,45.4510639 C309.070965,35.6607541 298.315387,29.4053254 286.636554,29.4053254 C285.390787,29.4053254 284.151758,29.4756761 282.920431,29.6154137 L272.278455,7.2323313 C270.798744,4.1185907 267.619822,2.19213837 264.172299,2.29140029 C260.728628,2.40415413 257.679673,4.54840447 256.405024,7.75176993 L250.613263,22.3133981 L236.755781,3.52301914 C234.533808,0.509504169 230.630916,-0.735606591 227.076531,0.435298651 C223.522145,1.60620389 221.121106,4.92810543 221.121106,8.6740385 L221.121106,154.189131 C221.121106,154.189131 62.3030403,188.792995 61.6868955,189.093671 C51.4781461,190.464064 41.3319739,187.831214 33.0679315,181.652882 C24.6864366,175.386852 19.2460704,166.228735 17.7461429,155.865019 C16.2462153,145.502267 18.8667562,135.175172 25.1254398,126.786093 C31.385086,118.397015 40.5329111,112.950137 50.8851067,111.44868 C55.62172,110.761556 58.9036539,106.362229 58.21723,101.620786 C57.5308062,96.880306 53.1388489,93.5921342 48.4003102,94.2811855 C33.4665002,96.4476011 20.2704112,104.304713 11.2410014,116.406958 C2.21159168,128.508239 -1.56903441,143.405238 0.595174262,158.352349 C2.7584202,173.301388 10.6075275,186.511898 22.6974441,195.551479 C30.5272969,201.406005 39.5287876,205.04593 48.956766,206.302606 C47.1978651,209.943494 45.5102059,214.191519 44.1739419,219.027406 C39.9417971,234.34169 38.4235778,258.776507 54.0717307,289.826216 L28.6499807,324.390568 C27.0017933,326.631189 26.5271692,329.528095 27.3753311,332.178292 L38.5092604,366.972006 C39.6587556,370.563746 42.9936394,373 46.7607874,373 L58.0988147,373 C58.1045911,373 58.1103674,373 58.1180692,373 C62.9037815,373 66.7826057,369.11722 66.7826057,364.326628 C66.7826057,363.307988 66.6073895,362.331752 66.2858389,361.423939 L61.3836368,343.80832 L133.630467,293.75429 C133.850932,293.60106 134.06562,293.43723 134.271643,293.263762 C141.261036,287.388034 146.81019,280.46572 150.824759,272.626919 L241.961242,271.013672 L256.828623,365.672928 C257.490979,369.892042 261.122383,373 265.388223,373 L274.718003,373 C279.503715,373 283.38254,369.11722 283.38254,364.326628 L283.38254,267.770794 C294.519357,262.025167 297.080209,250.132046 297.082134,240.417869 L297.082134,120.221314 C333.102538,119.545755 361.960258,92.8163493 365.948833,56.1655696 C366.211657,53.7553359 365.453992,51.3451021 363.859717,49.5188754 Z" id="path-3"></path>
        <filter x="-3.6%" y="-4.0%" width="109.3%" height="109.1%" filterUnits="objectBoundingBox" id="filter-4">
            <feOffset dx="4" dy="2" in="SourceAlpha" result="shadowOffsetOuter1"></feOffset>
            <feGaussianBlur stdDeviation="5" in="shadowOffsetOuter1" result="shadowBlurOuter1"></feGaussianBlur>
            <feColorMatrix values="0 0 0 0 0   0 0 0 0 0   0 0 0 0 0  0 0 0 0.5 0" type="matrix" in="shadowBlurOuter1"></feColorMatrix>
        </filter>
    </defs>
    <g id="Page-1" stroke="none" stroke-width="1" fill="none" fill-rule="evenodd">
        <g id="Desktop-HD">
            <g id="Group" transform="translate(26.000000, 9.000000)">
                <g id="clouds" style="mix-blend-mode: darken;" stroke="#5798C9" stroke-width="6" fill="url(#linearGradient-1)" fill-rule="nonzero">
                    <path d="M803.413977,587.086166 C888.790113,587.086166 958,517.818268 958,432.372879 C958,358.974 906.909785,297.556089 838.390332,281.68758 C836.988883,126.38442 710.781738,0.913834395 555.273266,0.913834395 C448.508656,0.913834395 355.562074,60.0602675 307.319664,147.391376 C292.640934,141.03386 276.461586,137.494624 259.451473,137.494624 C198.173152,137.494624 147.599359,183.225669 139.856773,242.439516 C60.1201133,258.263083 0,328.639567 0,413.086854 C0,509.185529 77.8393711,587.086166 173.856418,587.086166 C200.601832,587.086166 785.090355,587.086166 803.413977,587.086166 Z" id="Shape"></path>
                </g>
                <text id="IrrepServices" font-family="Ubahn" font-size="144" font-weight="normal" fill="#0C619C">
                    <tspan x="127" y="700">IrrepServices</tspan>
                </text>
                <text id="Sabemos-de-TI" font-family="Ubahn" font-size="72" font-weight="normal" fill="#0C619C">
                    <tspan x="270" y="785">Sabemos de TI</tspan>
                </text>
                <g id="dog-poo" transform="translate(492.000000, 394.500000) scale(-1, 1) translate(-492.000000, -394.500000) translate(309.000000, 208.000000)" fill-rule="nonzero">
                    <g id="Shape">
                        <use fill="black" fill-opacity="1" filter="url(#filter-4)" xlink:href="#path-3"></use>
                        <use fill="url(#radialGradient-2)" fill-rule="evenodd" xlink:href="#path-3"></use>
                    </g>
                </g>
            </g>
        </g>
    </g>
</svg>